<?xml version="1.0" encoding="UTF-8" standalone="no"?>
<svg
   xmlns:dc="http://purl.org/dc/elements/1.1/"
   xmlns:cc="http://creativecommons.org/ns#"
   xmlns:rdf="http://www.w3.org/1999/02/22-rdf-syntax-ns#"
   xmlns:svg="http://www.w3.org/2000/svg"
   xmlns="http://www.w3.org/2000/svg"
   xmlns:sodipodi="http://sodipodi.sourceforge.net/DTD/sodipodi-0.dtd"
   xmlns:inkscape="http://www.inkscape.org/namespaces/inkscape"
   id="svg8"
   version="1.1"
   viewBox="0 0 62.851654 139.09111"
   height="139.09111mm"
   width="62.851654mm"
   sodipodi:docname="Dragon (Chinese characters).svg"
   inkscape:version="0.92.4 (5da689c313, 2019-01-14)">
  <sodipodi:namedview
     pagecolor="#ffffff"
     bordercolor="#666666"
     borderopacity="1"
     objecttolerance="10"
     gridtolerance="10"
     guidetolerance="10"
     inkscape:pageopacity="0"
     inkscape:pageshadow="2"
     inkscape:window-width="1632"
     inkscape:window-height="1101"
     id="namedview104"
     showgrid="false"
     inkscape:zoom="0.48308952"
     inkscape:cx="-143.36878"
     inkscape:cy="395.18977"
     inkscape:window-x="525"
     inkscape:window-y="146"
     inkscape:window-maximized="0"
     inkscape:current-layer="svg8"
     fit-margin-top="3"
     fit-margin-left="3"
     fit-margin-right="3"
     fit-margin-bottom="3" />
  <defs
     id="defs2" />
  <metadata
     id="metadata5">
    <rdf:RDF>
      <cc:Work
         rdf:about="">
        <dc:format>image/svg+xml</dc:format>
        <dc:type
           rdf:resource="http://purl.org/dc/dcmitype/StillImage" />
        <dc:title></dc:title>
      </cc:Work>
    </rdf:RDF>
  </metadata>
  <g
     aria-label="龍
龙"
     transform="matrix(1.5679996,0,0,1.5679996,-54.930381,-83.376478)"
     style="font-style:normal;font-weight:normal;font-size:40px;line-height:1.25;font-family:sans-serif;letter-spacing:0px;word-spacing:0px;fill:#000000;fill-opacity:1;stroke:none"
     id="flowRoot4619">
    <path
       d="m 60.658203,57.609375 q 3.28125,-1.09375 4.0625,-1.25 0.9375,-0.3125 1.71875,0.3125 0.9375,0.625 -0.78125,1.40625 -1.71875,0.625 -5.15625,0.625 l -0.3125,3.125 q -0.15625,1.5625 0.9375,1.25 1.09375,-0.46875 1.71875,-0.9375 0.78125,-0.46875 1.5625,0 0.78125,0.3125 1.71875,1.09375 0.9375,0.625 0,1.09375 -0.9375,0.46875 -2.1875,3.125 1.25,1.09375 0.46875,1.40625 -0.625,0.15625 -2.03125,0.3125 -1.25,0.15625 -5,0.9375 -0.3125,1.25 -0.3125,2.5 2.1875,-0.3125 3.90625,-0.78125 1.71875,-0.46875 2.34375,0.15625 0.78125,0.46875 -0.15625,0.78125 -0.78125,0.3125 -2.1875,0.625 -1.25,0.15625 -4.0625,0.46875 -0.15625,1.40625 -0.15625,2.34375 2.65625,-0.46875 4.375,-0.78125 1.875,-0.46875 2.5,0.15625 0.78125,0.46875 -0.9375,0.9375 -1.71875,0.46875 -5.9375,0.625 -0.15625,2.03125 0,2.8125 3.125,-0.46875 4.84375,-0.9375 1.71875,-0.46875 2.1875,0.3125 0.46875,0.625 -0.78125,0.9375 -1.25,0.3125 -2.8125,0.46875 -1.40625,0.15625 -3.28125,0.15625 0.46875,3.4375 3.4375,3.75 2.96875,0.3125 6.5625,-0.3125 3.59375,-0.625 4.0625,-2.65625 0.46875,-2.1875 0.625,-3.59375 0.15625,-1.5625 0.3125,0.9375 0.3125,2.34375 0.9375,3.4375 0.625,1.09375 0.15625,1.875 -0.46875,0.78125 -2.5,1.71875 -2.03125,0.78125 -5.3125,0.9375 -3.125,0.3125 -5.46875,-0.3125 -2.1875,-0.625 -3.4375,-2.1875 -1.09375,-1.5625 -1.09375,-4.84375 0,-3.4375 0.15625,-6.5625 0.15625,-3.125 -0.46875,-4.53125 -0.625,-1.40625 2.5,0.3125 1.5625,-0.3125 5,-1.09375 0.46875,-2.03125 0.46875,-2.96875 0.15625,-1.09375 -1.40625,-0.78125 -1.5625,0.15625 -2.03125,0.78125 -0.3125,0.46875 -1.09375,-0.15625 -0.625,-0.78125 0,-1.71875 0.625,-0.9375 0.46875,-3.125 -0.15625,-2.34375 -1.09375,-3.28125 -0.9375,-1.09375 0.9375,-0.625 1.875,0.3125 2.03125,1.71875 z m -15.625,14.53125 q -0.15625,2.1875 -0.15625,2.96875 1.875,-0.625 2.34375,0 0.46875,0.625 -0.46875,0.78125 -0.9375,0.15625 -1.875,0.15625 -0.3125,1.71875 -0.46875,2.5 0.9375,-0.15625 1.71875,-0.46875 0.78125,-0.3125 1.25,0.46875 0.46875,0.625 -0.46875,0.9375 -0.9375,0.15625 -2.65625,0.15625 -0.46875,4.0625 -1.25,5.625 -0.78125,1.40625 -1.25,-0.3125 -0.46875,-1.71875 0,-2.8125 0.46875,-1.25 0.78125,-3.125 0.46875,-1.875 0.625,-3.90625 0.3125,-2.1875 -0.3125,-3.125 -0.46875,-0.9375 0,-0.9375 0.46875,0 0.9375,0.15625 0.625,0.15625 1.71875,0 1.09375,-0.15625 2.03125,-0.625 0.9375,-0.625 1.875,-0.15625 1.09375,0.46875 1.5625,0.9375 0.46875,0.46875 0,1.09375 -0.46875,0.625 -0.3125,3.75 0.15625,3.125 0.3125,5.3125 0.3125,2.03125 0,3.90625 -0.3125,1.71875 -1.09375,2.34375 -0.625,0.625 -1.25,-0.78125 -0.46875,-1.40625 -1.875,-2.1875 -1.40625,-0.78125 -0.15625,-0.625 1.25,0.15625 1.875,0.15625 0.625,-0.15625 0.625,-2.65625 0,-2.5 -0.15625,-5.3125 -0.15625,-2.8125 -0.46875,-3.59375 -0.3125,-0.9375 -0.9375,-0.9375 -0.625,0 -2.5,0.3125 z m 5.15625,-10.46875 q 2.5,0.9375 1.71875,1.5625 -0.625,0.625 -2.5,2.5 4.21875,-1.25 5,-0.46875 0.78125,0.625 -0.9375,1.09375 -1.5625,0.3125 -3.4375,0.625 -1.71875,0.3125 -5.15625,1.40625 -3.4375,0.9375 -4.375,1.40625 -0.78125,0.46875 -2.65625,-0.625 -1.71875,-1.25 -0.15625,-1.09375 1.71875,0 4.0625,-0.46875 2.5,-0.46875 6.71875,-1.5625 1.5625,-2.8125 1.40625,-4.21875 -3.125,0.9375 -4.84375,0.46875 -1.71875,-0.46875 0,-0.78125 1.71875,-0.46875 4.0625,-1.25 2.34375,-0.9375 3.4375,-0.625 1.25,0.15625 0.625,0.78125 -0.46875,0.46875 -2.96875,1.25 z m -2.03125,-6.5625 q 2.03125,0.15625 2.65625,0.78125 0.78125,0.625 0.78125,1.5625 0.15625,0.9375 -0.3125,1.25 -0.3125,0.3125 -1.71875,-0.78125 -1.40625,-1.09375 -2.5,-2.03125 -0.9375,-0.9375 1.09375,-0.78125 z m -2.5,8.28125 q 1.25,0.9375 0.9375,2.03125 -0.3125,0.9375 -0.78125,0.9375 -0.46875,-0.15625 -0.9375,-1.09375 -0.3125,-0.9375 -0.46875,-1.875 0,-0.9375 1.25,0 z"
       style="font-style:normal;font-variant:normal;font-weight:normal;font-stretch:normal;font-family:KaiTi;-inkscape-font-specification:KaiTi"
       id="path4629" />
    <path
       d="m 52.376953,117.67867 q 5.625,-1.09375 6.875,-1.5625 1.40625,-0.625 2.8125,0.46875 1.5625,0.9375 -0.78125,1.5625 -2.1875,0.46875 -6.40625,1.09375 0.625,0.3125 1.25,0.9375 0.625,0.625 0,2.1875 -0.625,1.5625 -0.78125,4.0625 0,2.5 0,4.53125 1.5625,-1.71875 3.75,-4.6875 2.1875,-2.96875 2.03125,-4.375 0,-1.40625 1.25,-0.78125 1.40625,0.46875 2.03125,1.40625 0.78125,0.78125 0.15625,1.09375 -0.46875,0.15625 -1.5625,1.25 -0.9375,1.09375 -3.125,3.75 -2.03125,2.5 -4.53125,4.6875 0,2.1875 1.25,3.28125 1.40625,1.09375 5.625,0.78125 4.21875,-0.46875 5.78125,-1.09375 1.5625,-0.78125 1.875,-1.875 0.46875,-1.09375 0.78125,-3.59375 0.46875,-2.5 0.625,0.3125 0.3125,2.8125 1.09375,4.53125 0.9375,1.5625 -1.40625,2.65625 -2.1875,1.09375 -7.8125,1.5625 -5.46875,0.46875 -7.34375,-1.25 -1.875,-1.875 -1.875,-4.375 -2.65625,2.1875 -4.6875,2.65625 -1.875,0.3125 0.15625,-1.09375 2.1875,-1.40625 4.53125,-3.59375 0,-4.0625 0,-7.34375 0.15625,-3.4375 -0.15625,-5.46875 l -1.875,0.46875 q -0.9375,4.0625 -2.1875,7.03125 -1.25,2.96875 -2.96875,5.46875 -1.5625,2.34375 -3.28125,3.75 -1.71875,1.40625 -4.0625,2.5 -2.34375,0.9375 -0.15625,-0.78125 2.34375,-1.875 4.0625,-3.90625 1.71875,-2.03125 3.28125,-5 1.5625,-3.125 3.28125,-8.75 -2.34375,0.46875 -3.75,0.78125 -1.25,0.3125 -2.65625,-0.625 -1.25,-1.09375 0.78125,-1.09375 2.1875,-0.15625 6.09375,-1.09375 0.46875,-2.65625 0.625,-5 0.15625,-2.5 -0.46875,-3.75 -0.46875,-1.25 0.78125,-0.78125 1.25,0.3125 2.34375,1.09375 1.25,0.78125 0.625,1.40625 -0.46875,0.625 -1.875,6.5625 z m 8.28125,-5.3125 q -1.25,-0.9375 -1.875,-1.71875 -0.46875,-0.78125 1.25,-0.78125 1.71875,0 2.96875,0.625 1.40625,0.46875 1.40625,2.03125 0.15625,1.40625 -1.09375,1.09375 -1.25,-0.46875 -2.65625,-1.25 z"
       style="font-style:normal;font-variant:normal;font-weight:normal;font-stretch:normal;font-family:KaiTi;-inkscape-font-specification:KaiTi"
       id="path4631" />
  </g>
</svg>
